<svg width="128" height="13" viewBox="0 0 128 13" fill="none" xmlns="http://www.w3.org/2000/svg">
<path d="M127.719 7.2425C128.029 6.93214 128.029 6.42895 127.719 6.11858L122.661 1.06095C122.351 0.750592 121.847 0.750591 121.537 1.06095C121.227 1.37131 121.227 1.87451 121.537 2.18487L126.033 6.68054L121.537 11.1762C121.227 11.4866 121.227 11.9898 121.537 12.3001C121.847 12.6105 122.351 12.6105 122.661 12.3001L127.719 7.2425ZM-2.26809e-06 7.47527C63 7.47545 82.5 7.47522 127.157 7.47527V5.88581C82.5 5.88576 63 5.88599 2.26809e-06 5.88581L-2.26809e-06 7.47527Z" fill="#E8FF85"/>
</svg>
